<svg width="35" height="17" viewBox="0 0 35 17" fill="none" xmlns="http://www.w3.org/2000/svg">
<path d="M23.7295 0C25.8882 0 27.1181 0.0902283 27.4467 0.144336C28.3185 0.287795 29.3171 0.645198 30.4113 1.28981C31.0198 1.64824 31.6503 2.22836 32.3229 2.99201C33.528 4.48553 34.1283 6.18042 34.1283 8.08018C34.1283 9.19378 33.9118 10.2426 33.4822 11.2303C32.6385 13.1533 31.2269 14.5038 29.3052 15.3951C28.3907 15.8191 27.0284 16.1421 25.1661 16.1421H18.3399L17.9828 16.1424V12.9123H25.5082C26.3104 12.9123 26.9355 12.9037 27.3707 12.758C28.5354 12.3683 29.3889 11.7775 29.9324 10.9988C30.5899 10.0107 30.9205 9.04944 30.9205 8.1144C30.9205 7.1722 30.6355 6.24506 30.0652 5.32917C29.708 4.80491 29.2893 4.43537 28.8834 4.12842C28.0716 3.51437 26.9714 3.22979 25.5082 3.22979H17.9828V0H23.7295V0Z" fill="black"/>
<path d="M0 6.49029H2.63004C2.97217 5.20589 3.56528 4.02415 4.41291 2.93732C5.20714 2.05565 5.86462 1.48182 6.39279 1.21201C6.97055 0.851246 7.60915 0.562282 8.30846 0.357111C9.0496 0.117575 10.0608 0 11.3378 0H16.0354V3.22979H11.1933C9.78343 3.22979 8.69622 3.5034 7.92831 4.05091C7.68521 4.16483 7.2938 4.51814 6.76153 5.12239C6.05476 6.01912 5.70123 7.00329 5.70123 8.07112C5.70123 9.13879 6.05476 10.123 6.76153 11.0197C7.2938 11.6241 7.68521 11.9774 7.92831 12.0915C8.69622 12.6387 9.78343 12.9123 11.1933 12.9123H16.0354V16.1421H11.3378C10.0608 16.1421 9.0496 16.0245 8.30846 15.7851C7.60915 15.5874 6.97055 15.2987 6.39279 14.9301C5.86462 14.6603 5.20714 14.0902 4.41291 13.2163C3.56528 12.1219 2.97217 10.9363 2.63004 9.65179H0V6.49029Z" fill="black"/>
</svg>
